<svg width="200" height="67" viewBox="0 0 200 67" fill="none" xmlns="http://www.w3.org/2000/svg">
<g clip-path="url(#clip0_132_7)">
<path d="M166.075 40.2463C166.392 39.4061 166.504 38.5021 166.401 37.6098C166.298 36.7175 165.984 35.8628 165.483 35.1169C164.969 34.5006 164.339 33.9917 163.628 33.6193C162.918 33.2469 162.14 33.0184 161.341 32.9467L127.022 32.5522C126.824 32.5522 126.627 32.3549 126.43 32.3549C126.384 32.3204 126.347 32.2757 126.321 32.2244C126.295 32.173 126.282 32.1164 126.282 32.059C126.282 32.0015 126.295 31.9449 126.321 31.8935C126.347 31.8422 126.384 31.7975 126.43 31.763C126.627 31.3685 126.824 31.1712 127.219 31.1712L161.736 30.7766C163.927 30.5334 166.014 29.7106 167.782 28.393C169.55 27.0754 170.935 25.3104 171.795 23.2797L173.767 18.1503C173.767 17.953 173.964 17.7557 173.767 17.5585C172.695 12.781 170.093 8.48431 166.356 5.32122C162.619 2.15813 157.953 0.301582 153.065 0.0336903C148.177 -0.234201 143.335 1.10121 139.276 3.837C135.216 6.57278 132.16 10.5594 130.572 15.191C128.511 13.7186 125.997 13.02 123.471 13.2182C121.154 13.4766 118.993 14.5158 117.345 16.165C115.696 17.8142 114.657 19.9754 114.398 22.2933C114.267 23.4798 114.334 24.6798 114.596 25.8445C110.846 25.9481 107.285 27.511 104.669 30.2006C102.054 32.8902 100.591 36.4944 100.592 40.2463C100.559 40.9753 100.626 41.7053 100.789 42.4165C100.798 42.5705 100.863 42.7158 100.972 42.8249C101.081 42.934 101.227 42.9993 101.381 43.0083H164.694C165.089 43.0083 165.483 42.811 165.483 42.4165L166.075 40.2463Z" fill="white"/>
<path d="M176.923 18.1503H175.937C175.74 18.1503 175.542 18.3476 175.345 18.5449L173.964 23.2797C173.647 24.12 173.535 25.024 173.638 25.9162C173.741 26.8085 174.056 27.6633 174.556 28.4092C175.07 29.0255 175.7 29.5344 176.411 29.9067C177.122 30.2791 177.899 30.5077 178.698 30.5793L185.996 30.9739C186.193 30.9739 186.391 31.1712 186.588 31.1712C186.634 31.2056 186.671 31.2503 186.697 31.3017C186.722 31.353 186.736 31.4097 186.736 31.4671C186.736 31.5245 186.722 31.5812 186.697 31.6325C186.671 31.6839 186.634 31.7286 186.588 31.763C186.391 32.1576 186.193 32.3549 185.799 32.3549L178.304 32.7494C176.112 32.9927 174.025 33.8154 172.257 35.1331C170.49 36.4507 169.104 38.2156 168.245 40.2463L167.85 42.0219C167.653 42.2192 167.85 42.6137 168.245 42.6137H194.28C194.36 42.6252 194.442 42.6178 194.519 42.5921C194.596 42.5665 194.666 42.5232 194.724 42.4658C194.781 42.4083 194.825 42.3383 194.85 42.2613C194.876 42.1842 194.883 42.1023 194.872 42.0219C195.341 40.3503 195.606 38.6279 195.661 36.8924C195.629 31.9314 193.645 27.1824 190.138 23.6743C186.631 20.1662 181.883 18.1816 176.923 18.1503" fill="white"/>
<path d="M198.225 53.6617C197.874 53.6617 197.531 53.5576 197.239 53.3625C196.947 53.1674 196.719 52.8901 196.585 52.5657C196.45 52.2412 196.415 51.8842 196.484 51.5398C196.552 51.1953 196.721 50.879 196.97 50.6307C197.218 50.3823 197.534 50.2132 197.879 50.1447C198.223 50.0762 198.58 50.1114 198.904 50.2458C199.229 50.3801 199.506 50.6077 199.701 50.8997C199.896 51.1917 200 51.535 200 51.8862C200.001 52.1196 199.956 52.3509 199.867 52.5668C199.778 52.7827 199.647 52.9788 199.482 53.1439C199.317 53.3089 199.121 53.4397 198.905 53.5286C198.69 53.6175 198.458 53.6627 198.225 53.6617ZM198.225 50.5052C197.952 50.5052 197.685 50.5862 197.458 50.7379C197.231 50.8897 197.054 51.1053 196.949 51.3577C196.845 51.61 196.817 51.8877 196.871 52.1556C196.924 52.4235 197.055 52.6696 197.249 52.8627C197.442 53.0558 197.688 53.1874 197.955 53.2406C198.223 53.2939 198.501 53.2666 198.753 53.1621C199.005 53.0575 199.221 52.8805 199.373 52.6534C199.525 52.4263 199.606 52.1593 199.606 51.8862C199.61 51.7036 199.577 51.522 199.509 51.3525C199.442 51.1829 199.34 51.0289 199.211 50.8997C199.082 50.7706 198.928 50.6691 198.758 50.6012C198.589 50.5334 198.407 50.5007 198.225 50.5052V50.5052ZM199.014 52.8726H198.619L198.225 52.2807H197.83V52.8726H197.436V51.097H198.422C198.502 51.0855 198.584 51.0929 198.661 51.1186C198.738 51.1443 198.808 51.1876 198.866 51.245C198.923 51.3024 198.967 51.3724 198.992 51.4495C199.018 51.5265 199.025 51.6085 199.014 51.6889C199.014 51.8862 198.817 52.0835 198.619 52.2807L199.014 52.8726V52.8726ZM198.422 51.8862C198.619 51.8862 198.619 51.8862 198.619 51.6889C198.62 51.6628 198.615 51.6369 198.605 51.6127C198.596 51.5886 198.581 51.5666 198.563 51.5482C198.544 51.5297 198.522 51.5152 198.498 51.5055C198.474 51.4958 198.448 51.491 198.422 51.4916H197.83V52.0835H198.422V51.8862ZM21.499 50.1106H25.8383V61.9477H33.3333V65.6962H21.499V50.1106ZM37.8698 57.8047C37.8699 56.7089 38.0923 55.6244 38.5236 54.6171C38.955 53.6097 39.5862 52.7004 40.3791 51.9442C41.172 51.1879 42.1102 50.6005 43.1367 50.2176C44.1632 49.8346 45.2567 49.6639 46.3511 49.716C47.4352 49.6672 48.5179 49.8415 49.532 50.2281C50.546 50.6147 51.47 51.2055 52.2465 51.9637C53.0231 52.722 53.6358 53.6317 54.0467 54.6364C54.4575 55.6411 54.6578 56.7195 54.6351 57.8047C54.635 58.9006 54.4126 59.985 53.9813 60.9924C53.55 61.9998 52.9187 62.9091 52.1258 63.6653C51.3329 64.4216 50.3948 65.0089 49.3683 65.3919C48.3418 65.7749 47.2482 65.9455 46.1538 65.8935C45.0739 65.9256 43.9986 65.7398 42.992 65.3471C41.9854 64.9545 41.0681 64.3631 40.295 63.6082C39.5219 62.8533 38.9087 61.9504 38.492 60.9533C38.0754 59.9562 37.8638 58.8854 37.8698 57.8047ZM50.2959 57.8047C50.3345 57.2578 50.2619 56.7088 50.0824 56.1907C49.9029 55.6727 49.6203 55.1964 49.2515 54.7907C48.8828 54.385 48.4357 54.0583 47.9372 53.8304C47.4386 53.6024 46.8991 53.4779 46.3511 53.4645C45.2875 53.5164 44.2847 53.9755 43.5503 54.7468C42.8159 55.5181 42.4063 56.5424 42.4063 57.6075C42.4063 58.6726 42.8159 59.6968 43.5503 60.4681C44.2847 61.2394 45.2875 61.6985 46.3511 61.7505C48.718 62.145 50.2959 60.1722 50.2959 57.8047ZM59.9606 58.7912V50.1106H64.2998V58.7912C64.2998 60.9613 65.4832 62.145 67.2584 62.145C67.673 62.1795 68.09 62.1198 68.4782 61.9703C68.8665 61.8209 69.2159 61.5856 69.5005 61.282C69.785 60.9785 69.9972 60.6145 70.1213 60.2173C70.2454 59.8201 70.2781 59.4001 70.217 58.9885V50.1106H74.5562V58.7912C74.5562 63.9206 71.5976 66.0907 67.2584 66.0907C62.7219 65.8935 59.9606 63.7233 59.9606 58.7912V58.7912ZM81.0651 50.1106H87.1795C92.7022 50.1106 96.0552 53.2672 96.0552 57.8047C96.0552 62.3423 92.7022 65.6962 87.1795 65.6962H81.2623V50.1106H81.0651ZM87.1795 61.7505C87.7291 61.8029 88.2837 61.7399 88.8075 61.5655C89.3314 61.3911 89.8131 61.1091 90.2216 60.7376C90.6302 60.3661 90.9566 59.9133 91.18 59.4082C91.4033 58.9032 91.5187 58.357 91.5187 57.8047C91.5187 57.2525 91.4033 56.7063 91.18 56.2012C90.9566 55.6962 90.6302 55.2434 90.2216 54.8719C89.8131 54.5004 89.3314 54.2184 88.8075 54.044C88.2837 53.8695 87.7291 53.8066 87.1795 53.859H85.4043V61.7505H87.1795ZM102.17 50.1106H114.596V53.859H106.509V56.4237H113.807V59.9749H106.509V65.6962H102.17V50.1106ZM120.71 50.1106H125.049V61.9477H132.544V65.6962H120.71V50.1106ZM143.787 49.9133H148.126L154.832 65.6962H150.099L148.915 62.9342H142.801L141.617 65.6962H137.081L143.787 49.9133ZM147.732 59.5803L145.957 55.24L144.181 59.5803H147.732ZM160.355 50.1106H167.653C168.584 50.035 169.521 50.1538 170.403 50.4595C171.286 50.7652 172.096 51.251 172.781 51.8862C173.346 52.4956 173.756 53.2322 173.977 54.0337C174.197 54.8352 174.221 55.678 174.047 56.4907C173.873 57.3035 173.506 58.0624 172.976 58.7032C172.447 59.344 171.771 59.8479 171.006 60.1722L174.753 65.6962H169.822L166.667 60.9613H164.694V65.6962H160.355V50.1106ZM167.456 57.6075C168.836 57.6075 169.822 56.8183 169.822 55.8319C169.822 54.6482 168.836 54.0563 167.456 54.0563H164.694V57.8047H167.456V57.6075ZM180.276 50.1106H192.899V53.6617H184.615V56.0292H192.11V59.5803H184.615V61.9477H193.097V65.6962H180.276V50.1106ZM12.0316 59.7776C11.7341 60.4748 11.2398 61.0701 10.6092 61.4906C9.97861 61.9111 9.23911 62.1385 8.48126 62.145C7.41769 62.0931 6.41485 61.6339 5.68047 60.8627C4.9461 60.0914 4.53649 59.0671 4.53649 58.002C4.53649 56.9369 4.9461 55.9127 5.68047 55.1414C6.41485 54.3701 7.41769 53.911 8.48126 53.859C9.28788 53.8745 10.0724 54.1256 10.7382 54.5812C11.404 55.0369 11.9222 55.6773 12.2288 56.4237H16.7653C16.3772 54.5339 15.332 52.8429 13.8154 51.6509C12.2987 50.459 10.4088 49.8433 8.48126 49.9133C7.39097 49.8778 6.30454 50.0599 5.28536 50.4489C4.26617 50.838 3.33465 51.4261 2.54515 52.1791C1.75565 52.932 1.12398 53.8347 0.686999 54.8345C0.250017 55.8342 0.0164749 56.911 1.14809e-06 58.002C-0.00607013 59.0827 0.20554 60.1535 0.622207 61.1506C1.03887 62.1477 1.65206 63.0506 2.42518 63.8055C3.19831 64.5604 4.11553 65.1518 5.12213 65.5444C6.12873 65.9371 7.20408 66.1229 8.28402 66.0907C10.1686 66.1035 12.0041 65.4906 13.5031 64.3482C15.0022 63.2058 16.0801 61.5983 16.568 59.7776H12.0316Z" fill="white"/>
</g>
<defs>
<clipPath id="clip0_132_7">
<rect width="200" height="66.0943" fill="white" transform="translate(-0.000125885)"/>
</clipPath>
</defs>
</svg>
