<svg width="38" height="39" viewBox="0 0 38 39" fill="none" xmlns="http://www.w3.org/2000/svg">
<g clip-path="url(#clip0_2293_159)">
<path d="M37.24 19.4274C37.24 17.8652 37.1133 16.7252 36.8389 15.543H19V22.594H29.471C29.26 24.3462 28.12 26.9851 25.5866 28.7584L25.551 28.9945L31.1914 33.3639L31.5821 33.403C35.171 30.0885 37.24 25.2118 37.24 19.4274Z" fill="#4285F4"/>
<path d="M18.9968 38.006C24.1267 38.006 28.4333 36.3169 31.579 33.4037L25.5834 28.7591C23.979 29.878 21.8256 30.6591 18.9968 30.6591C13.9724 30.6591 9.70798 27.3448 8.18784 22.7637L7.96504 22.7826L2.10015 27.3215L2.02344 27.5347C5.14787 33.7413 11.5657 38.006 18.9968 38.006Z" fill="#34A853"/>
<path d="M8.19099 22.7639C7.7899 21.5817 7.55775 20.3149 7.55775 19.0061C7.55775 17.6971 7.7899 16.4305 8.16986 15.2483L8.15923 14.9965L2.22081 10.3848L2.02652 10.4772C0.738905 13.0528 0 15.945 0 19.0061C0 22.0672 0.738905 24.9594 2.02665 27.535L8.19099 22.7639Z" fill="#FBBC05"/>
<path d="M18.9968 7.35246C22.5645 7.35246 24.971 8.89355 26.3434 10.1814L31.7056 4.94586C28.4124 1.88476 24.1267 0.00585938 18.9968 0.00585938C11.5656 0.00585938 5.14781 4.27023 2.02344 10.4768L8.16671 15.248C9.70798 10.667 13.9723 7.35246 18.9968 7.35246Z" fill="#EB4335"/>
</g>
<defs>
<clipPath id="clip0_2293_159">
<rect width="37.24" height="38" fill="white" transform="translate(0 0.00585938)"/>
</clipPath>
</defs>
</svg>
