<svg width="201" height="42" viewBox="0 0 201 42" fill="none" xmlns="http://www.w3.org/2000/svg">
<path d="M31.3473 8.96585C32.2013 7.95185 32.9211 6.9926 33.7511 6.1426C34.8181 5.0496 35.896 3.9366 37.108 3.0176C41.576 -0.370396 47.102 -0.107646 51.631 3.61135C54.961 6.34735 57.1522 9.86838 58.6212 13.8604C60.7932 19.7574 61.67 25.812 60.442 32.042C59.788 35.362 58.335 38.2637 55.213 39.9737C51.302 42.1167 46.4212 41.4383 42.9752 38.3213C40.0762 35.6993 38.0811 32.3885 36.0641 29.1065C34.4591 26.4945 32.9203 23.839 31.3453 21.21C31.1403 20.866 30.8912 20.5513 30.5572 20.0703C30.1102 20.8083 29.7521 21.3963 29.3971 21.9873C26.9441 26.0693 24.5469 30.1849 22.0079 34.2139C21.1569 35.5659 19.9922 36.7342 18.8922 37.9102C13.7402 43.4232 3.41688 42.1483 0.904878 33.0723C-0.054122 29.6093 -0.0329618 26.1127 0.419038 22.5967C1.18204 16.6547 3.07504 11.1367 6.89804 6.43167C9.70004 2.98267 13.184 0.638932 17.817 0.628932C21.334 0.621932 24.3509 2.02664 26.9269 4.34964C28.1549 5.45564 29.2481 6.7113 30.3971 7.9053C30.7051 8.2243 30.9893 8.56285 31.3473 8.96585ZM34.5543 13.2256C34.7163 13.5706 34.7852 13.7674 34.8932 13.9414C37.9842 18.9464 41.0373 23.9756 44.1993 28.9346C45.1713 30.4606 46.3291 31.9075 47.6021 33.1905C49.6841 35.2865 52.9881 34.6083 54.1651 31.9033C54.5541 31.0103 54.7852 29.9993 54.8492 29.0283C55.1572 24.3003 54.5739 19.6815 52.9059 15.2305C51.8609 12.4445 50.4313 9.88767 48.1173 7.93167C45.6253 5.82567 42.5281 5.45388 40.0631 7.04788C37.6791 8.58688 36.0773 10.8526 34.5543 13.2256ZM27.4312 14.8028C25.8442 13.0228 24.3399 11.2728 22.7589 9.59475C22.2599 9.06475 21.5831 8.67848 20.9391 8.31448C18.4821 6.92648 15.8571 7.03857 13.7931 8.93557C12.4461 10.1736 11.2192 11.66 10.3302 13.253C7.59617 18.153 6.66485 23.4994 7.03085 29.0694C7.08685 29.9184 7.33823 30.7861 7.66123 31.5801C8.81223 34.4001 11.8312 35.277 14.2852 33.461C15.2022 32.781 16.0629 31.9379 16.7179 31.0069C18.8349 27.9949 20.8602 24.9167 22.8912 21.8457C24.3712 19.6037 25.8042 17.3308 27.4312 14.8028Z" fill="white"/>
<path d="M79.812 11.8418C79.812 21.3148 79.812 30.787 79.812 40.376C77.736 40.376 75.7742 40.376 73.6602 40.376C73.6602 27.612 73.6602 14.8858 73.6602 2.00977C76.1542 2.00977 78.6482 2.00977 81.3062 2.00977C85.4972 9.57677 89.721 17.2021 94.082 25.0771C98.436 17.2111 102.655 9.58654 106.867 1.97754C109.409 1.97754 111.829 1.97754 114.355 1.97754C114.355 14.7925 114.355 27.4889 114.355 40.3389C112.343 40.3389 110.352 40.3389 108.186 40.3389C108.186 30.8269 108.186 21.332 108.186 11.835C108.089 11.813 107.993 11.7905 107.896 11.7695C104.264 18.2955 100.632 24.8245 96.9741 31.3975C94.9851 31.3975 93.0571 31.3975 91.0151 31.3975C87.3691 24.8455 83.7308 18.3046 80.0928 11.7656C79.9998 11.7906 79.907 11.8158 79.812 11.8418Z" fill="white"/>
<path d="M194.221 40.3531C194.221 39.2251 194.221 38.1784 194.221 37.1324C194.092 37.0634 193.963 36.9934 193.834 36.9234C193.691 37.1684 193.593 37.4569 193.4 37.6529C188.211 42.9859 179.368 42.2123 174.82 36.0103C172.355 32.6503 171.582 28.8042 171.846 24.7252C172.062 21.3882 173.088 18.3375 175.198 15.6715C179.853 9.78145 189.225 9.51643 193.568 14.4224C193.672 14.5394 193.812 14.6265 194.067 14.8355C194.138 13.7935 194.2 12.8776 194.274 11.7906C196.236 11.7906 198.111 11.7906 200.12 11.7906C200.12 21.3086 200.12 30.7601 200.12 40.3521C198.205 40.3531 196.3 40.3531 194.221 40.3531ZM194.117 26.1431C194.117 25.1911 194.051 24.2327 194.133 23.2877C194.258 21.8567 193.724 20.6892 192.848 19.6422C190.633 16.9932 187.761 16.2019 184.467 16.8609C181.349 17.4869 179.507 19.5484 178.627 22.5054C178.077 24.3494 178.015 26.2378 178.311 28.1578C178.766 31.1208 179.951 33.6351 182.839 34.8101C185.822 36.0251 188.802 35.7302 191.439 33.7642C193.159 32.4832 194.391 30.8665 194.13 28.5035C194.043 27.7265 194.117 26.9311 194.117 26.1431Z" fill="white"/>
<path d="M147.29 28.4565C140.07 28.4565 133.223 28.4565 126.374 28.4565C126.439 31.7205 129.312 35.3203 133.425 35.6343C136.783 35.8903 139.853 35.2119 142.43 32.8999C142.551 32.7909 142.696 32.7054 142.84 32.6284C142.909 32.5904 143 32.5981 143.248 32.5591C144.252 33.8001 145.311 35.1081 146.481 36.5561C145.717 37.1651 145.09 37.7533 144.381 38.2163C140.264 40.8953 135.768 41.7945 130.964 40.7905C124.557 39.4505 120.176 34.2602 119.798 27.7182C119.602 24.3082 120.056 21.035 121.709 17.977C126.088 9.87904 136.786 9.28599 141.983 13.729C144.696 16.048 146.179 19.0436 146.739 22.4956C147.042 24.3546 147.096 26.2555 147.29 28.4565ZM140.747 23.5991C141.053 19.8881 137.92 16.5846 134.035 16.4126C130.031 16.2346 126.452 19.5441 126.33 23.5991C131.141 23.5991 135.948 23.5991 140.747 23.5991Z" fill="white"/>
<path d="M169.059 35.4385C169.059 36.9745 169.059 38.6017 169.059 40.3887C168.391 40.5447 167.724 40.8159 167.048 40.8369C165.194 40.8999 163.292 41.1157 161.49 40.8037C157.507 40.1157 155.085 37.396 154.604 33.377C154.413 31.779 154.372 30.1579 154.354 28.5469C154.319 25.1909 154.346 21.8335 154.34 18.4775C154.339 18.0745 154.295 17.6728 154.255 17.0068C152.388 17.0068 150.601 17.0068 148.747 17.0068C148.747 15.1468 148.747 13.5561 148.747 11.7881C150.6 11.7881 152.358 11.7881 154.351 11.7881C154.351 10.2741 154.351 8.92994 154.351 7.58594C154.351 6.23194 154.351 4.87995 154.351 3.41895C156.474 3.41895 158.395 3.41895 160.561 3.41895C160.561 6.13495 160.561 8.83052 160.561 11.7285C163.543 11.7285 166.283 11.7285 169.095 11.7285C169.095 13.5335 169.095 15.1329 169.095 17.0049C166.309 17.0049 163.574 17.0049 160.769 17.0049C160.706 17.6239 160.638 17.9838 160.637 18.3418C160.632 22.3628 160.636 26.3814 160.643 30.4004C160.644 30.8154 160.659 31.2296 160.701 31.6416C160.962 34.1626 162.214 35.3527 164.747 35.4307C166.144 35.4727 167.542 35.4385 169.059 35.4385Z" fill="white"/>
</svg>
