<svg width="201" height="59" viewBox="0 0 201 59" fill="none" xmlns="http://www.w3.org/2000/svg">
<path d="M172.84 38.8262C172.84 40.4362 173.62 41.7158 175.779 41.7158C178.33 41.7158 181.049 39.8868 181.219 35.7158C180.049 35.5568 178.768 35.3867 177.609 35.3867C175.06 35.3867 172.84 36.1062 172.84 38.8262Z" fill="white"/>
<path d="M74.7402 26.2363C71.0692 26.2363 68.7988 28.946 68.7988 33.666C68.7988 37.996 70.8002 41.3262 74.6802 41.3262C78.4002 41.3262 80.8398 38.3257 80.8398 33.5547C80.8388 28.5067 78.1202 26.2363 74.7402 26.2363Z" fill="white"/>
<path d="M0.119141 0.826172V58.0156H200.121V0.826172H0.119141ZM58.3091 46.2666H47.8188V32.1768C47.8188 27.8468 46.3788 26.1865 43.5488 26.1865C40.1088 26.1865 38.7178 28.626 38.7178 32.126V40.8262H42.0488V46.2656H31.5688V32.1758C31.5688 27.8458 30.1289 26.1855 27.2979 26.1855C23.8589 26.1855 22.4692 28.625 22.4692 32.125V40.8252H27.2388V46.2646H11.9888V40.8252H15.3188V26.6758H11.9888V21.2363H22.4692V25.0059C23.9682 22.3469 26.5778 20.7363 30.0688 20.7363C33.6788 20.7363 37 22.4562 38.229 26.1162C39.619 22.7862 42.4492 20.7363 46.3882 20.7363C50.8792 20.7363 54.9902 23.4557 54.9902 29.3857V40.8252H58.3091V46.2666V46.2666ZM74.458 46.8164C66.749 46.8164 61.4189 42.1062 61.4189 34.1162C61.4189 26.7962 65.8581 20.7461 74.8491 20.7461C83.8291 20.7461 88.2178 26.7864 88.2178 33.7764C88.2178 41.7674 82.449 46.8164 74.458 46.8164ZM114.81 46.2666H92.9502L92.229 42.4961L105.99 26.6855H98.1699L97.061 30.5664L91.9009 30.0059L92.791 21.2354H114.761L115.322 25.0049L101.441 40.8252H109.542L110.702 36.9453L116.361 37.4951L114.81 46.2666ZM129.09 46.2666H121.599V37.2773H129.09V46.2666ZM129.09 30.2266H121.599V21.2471H129.09V30.2266ZM133.78 46.2666L144.599 8.09668H151.639L140.82 46.2666H133.78ZM148.3 46.2666L159.119 8.09668H166.17L155.35 46.2666H148.3ZM186.691 46.8164C183.36 46.8164 181.53 44.8772 181.201 41.8262C179.761 44.3762 177.21 46.8164 173.16 46.8164C169.55 46.8164 165.45 44.8663 165.45 39.6562C165.45 33.4963 171.39 32.0557 177.1 32.0557C178.49 32.0557 179.93 32.1064 181.21 32.2764V31.4463C181.21 28.8963 181.149 25.8457 177.1 25.8457C175.6 25.8457 174.44 25.9554 173.27 26.5664L172.459 29.3857L166.749 28.7764L167.729 23.0156C172.119 21.2446 174.329 20.7451 178.44 20.7451C183.819 20.7451 188.37 23.5254 188.37 29.2354V40.1055C188.37 41.5445 188.92 42.0439 190.089 42.0439C190.42 42.0439 190.749 41.984 191.14 41.874L191.18 45.6445C189.85 46.3755 188.241 46.8164 186.691 46.8164Z" fill="white"/>
</svg>
