<svg width="201" height="46" viewBox="0 0 201 46" fill="none" xmlns="http://www.w3.org/2000/svg">
<path d="M18.5762 27.9422C18.5762 32.6072 15.1911 35.5037 9.74613 35.5037C7.07213 35.5037 4.51619 35.0852 1.80619 33.6512C1.68819 33.5822 1.56925 33.514 1.44925 33.449C1.06325 33.229 0.676005 33.0112 0.293005 32.7342C0.283005 32.7212 0.269966 32.7082 0.252966 32.6912C0.172966 32.6152 0.0421886 32.4896 0.181189 32.1306L0.176794 32.1228L1.25004 29.1365C1.41904 28.6255 1.81086 28.7974 1.96586 28.8914C2.08486 28.9624 2.19179 29.0342 2.30179 29.1062L2.30326 29.1082C2.46626 29.2122 2.63483 29.3248 2.86283 29.4568C6.03483 31.4608 8.95994 31.4763 9.87894 31.4763C12.2389 31.4763 13.7129 30.218 13.7129 28.532V28.4383C13.7129 26.6053 11.45 25.9064 8.835 25.1004L8.25687 24.9217C4.66687 23.8977 0.823278 22.4149 0.823278 17.8679V17.7762C0.823278 13.4632 4.30503 10.448 9.29203 10.448L9.835 10.4451C12.762 10.4451 15.5931 11.2958 17.6411 12.5428C17.8281 12.6548 18.0088 12.87 17.9058 13.156C17.8068 13.43 16.897 15.8654 16.794 16.1414C16.601 16.6514 16.0733 16.3094 16.0733 16.3094C14.2883 15.3244 11.4958 14.5437 9.15482 14.5437C7.04882 14.5437 5.68119 15.6672 5.68119 17.1892V17.2801C5.68119 19.0561 8.01388 19.8191 10.7149 20.6951L11.1822 20.8445C14.7542 21.9675 18.5782 23.5374 18.5782 27.8504V27.9422H18.5762ZM40.9102 33.9422C40.9102 33.9422 40.3402 34.0976 39.8262 34.2146C38.5402 34.4936 37.2492 34.7445 35.9522 34.9685C34.4312 35.2255 32.8598 35.3582 31.2798 35.3582C29.7758 35.3582 28.4122 35.2181 27.2032 34.9431C25.9822 34.6711 24.9249 34.2097 24.0689 33.5877C23.2109 32.9637 22.5181 32.1355 22.0591 31.1775C21.5921 30.2115 21.354 29.0318 21.354 27.6648C21.354 26.3178 21.6313 25.1281 22.1783 24.1131C22.7173 23.1071 23.4831 22.2389 24.4121 21.5769C25.3391 20.9089 26.4212 20.4078 27.6202 20.0838C28.8112 19.7618 30.0898 19.5984 31.4058 19.5984C32.3728 19.5984 33.1822 19.6198 33.8072 19.6658L33.8208 19.7019C33.8208 19.7019 35.0409 19.8117 36.3579 20.0027V19.3523C36.3579 17.3033 35.9299 16.3293 35.0899 15.6863C34.2309 15.0243 32.9432 14.6912 31.2832 14.6912C31.2832 14.6912 27.5381 14.6417 24.5811 16.2517C24.4451 16.3327 24.3291 16.3787 24.3291 16.3787C24.3291 16.3787 23.9583 16.5087 23.8233 16.1287L22.729 13.2029C22.563 12.7769 22.8692 12.5896 22.8692 12.5896C24.2542 11.5046 27.6099 10.8533 27.6099 10.8533C28.7219 10.6293 30.5859 10.4724 31.7369 10.4724C34.8119 10.4724 37.1808 11.1853 38.8008 12.6013C40.4258 14.0153 41.2491 16.3074 41.2491 19.3924L41.2569 33.4412C41.2599 33.4392 41.2912 33.8472 40.9102 33.9422ZM51.232 34.4383C51.232 34.6973 51.047 34.907 50.792 34.907H46.71C46.451 34.907 46.2671 34.6973 46.2671 34.4383V1.59061C46.2671 1.33361 46.452 1.12674 46.71 1.12674H50.792C51.048 1.12674 51.232 1.33361 51.232 1.59061V34.4383ZM76.7471 23.7937C76.7441 23.8247 76.7413 23.8452 76.7403 23.8562C76.6973 24.2512 76.293 24.2537 76.293 24.2537L60.875 24.242C60.964 26.585 61.5301 28.233 62.6621 29.366C63.7741 30.47 65.5512 31.1754 67.9312 31.1804C71.2682 31.1884 72.8582 30.5741 73.9502 30.1541C74.0172 30.1291 74.085 30.1019 74.148 30.0779C74.184 30.0629 74.219 30.0508 74.252 30.0388C74.252 30.0388 74.678 29.8874 74.833 30.3074L75.8389 33.1258C76.0409 33.6008 75.878 33.7671 75.709 33.8621C74.753 34.3991 72.411 35.3891 67.962 35.4031C65.797 35.4101 63.9221 35.0988 62.3711 34.4988C60.8101 33.8948 59.5121 33.0344 58.4981 31.9334C57.4941 30.8394 56.74 29.5253 56.273 28.0213C55.808 26.5283 55.5743 24.8813 55.5743 23.1053C55.5743 21.3683 55.8011 19.7091 56.2481 18.1971C56.6971 16.6661 57.402 15.3291 58.336 14.1961C59.274 13.0651 60.4629 12.1609 61.8789 11.4939C63.2919 10.8329 65.038 10.5086 66.961 10.5086C68.476 10.5066 69.9771 10.8101 71.3711 11.4041C72.3361 11.8141 73.3019 12.5657 74.2979 13.6287C74.9209 14.3037 75.8831 15.7763 76.2701 17.2303L76.2788 17.2342C77.2068 20.4832 76.8121 23.3247 76.7471 23.7937ZM89.4561 35.4959C86.7821 35.4959 84.2262 35.0764 81.5132 33.6414C81.4792 33.6214 81.4433 33.6008 81.4073 33.5818C81.3243 33.5328 81.2398 33.4863 81.1548 33.4383C80.7688 33.2203 80.383 33.0014 80.002 32.7254C79.992 32.7124 79.979 32.7004 79.962 32.6844C79.881 32.6074 79.7492 32.4848 79.8882 32.1228L79.875 32.115L80.9483 29.1287C81.1063 28.6417 81.5651 28.8196 81.6641 28.8826C81.7291 28.9256 81.7931 28.9666 81.8521 29.0076C82.0651 29.1446 82.265 29.276 82.562 29.448C85.724 31.452 88.6572 31.4676 89.5772 31.4676C91.9362 31.4676 93.4121 30.2092 93.4121 28.5222V28.4285C93.4121 26.5955 91.1592 25.8976 88.5332 25.0916L87.9571 24.9129C84.3671 23.8889 80.522 22.4062 80.522 17.8592V17.7664C80.522 13.4534 84.0042 10.4392 88.9912 10.4392L89.5362 10.4383C92.4622 10.4383 95.2919 11.2859 97.3409 12.5349C97.5259 12.6459 97.709 12.8612 97.605 13.1472C97.517 13.4212 96.605 15.8566 96.502 16.1326C96.309 16.6436 95.7788 16.3006 95.7788 16.3006C93.9848 15.3156 91.2039 14.5349 88.8609 14.5349C86.7549 14.5349 85.3882 15.6575 85.3882 17.1785V17.2713C85.3882 19.0463 87.7199 19.8093 90.4219 20.6853L90.8902 20.8357C94.4712 21.9587 98.2862 23.5296 98.2862 27.8416V27.9324C98.2862 32.5994 94.8991 35.4959 89.4561 35.4959ZM116.395 14.6883C116.306 15.1533 115.879 15.1365 115.879 15.1365H110.81L107.342 34.7537C106.978 36.7837 106.523 38.5246 105.989 39.9256C105.45 41.3396 104.885 42.377 103.987 43.368C103.16 44.286 102.221 44.9643 101.144 45.3513C100.075 45.7393 98.7832 45.9383 97.3682 45.9383C96.6912 45.9383 95.9689 45.9254 95.1119 45.7234C94.4949 45.5784 94.1581 45.4743 93.7071 45.3113C93.5131 45.2443 93.3588 45.003 93.4678 44.699C93.5768 44.391 94.4829 41.8971 94.6109 41.5711C94.7689 41.1721 95.168 41.324 95.168 41.324L95.189 41.3318C95.452 41.4418 95.642 41.5226 96 41.5926C96.365 41.6666 96.861 41.7303 97.232 41.7303C97.904 41.7303 98.513 41.6465 99.045 41.4685C99.687 41.2525 100.06 40.8826 100.453 40.3806C100.858 39.8606 101.189 39.1471 101.526 38.1931C101.868 37.2261 102.176 35.9502 102.448 34.3982L105.899 15.1365H102.497C102.088 15.1365 101.957 14.9454 101.996 14.6394L102.57 11.4392C102.659 10.9752 103.087 10.992 103.087 10.992H106.58L106.768 9.94998C107.29 6.85998 108.331 4.51151 109.861 2.96951C111.403 1.41651 113.597 0.629668 116.381 0.629668C117.081 0.621668 117.781 0.676777 118.474 0.791777C118.987 0.881777 119.494 1.00311 119.995 1.15311C120.103 1.19511 120.399 1.34221 120.277 1.69021L119.1 4.91971C119.001 5.16371 118.934 5.31196 118.433 5.15896C118.308 5.12096 118.122 5.06758 117.645 4.96658C117.3 4.89458 116.844 4.83865 116.381 4.83865C115.82 4.83065 115.265 4.91096 114.728 5.07596C114.241 5.23596 113.8 5.51171 113.441 5.87771C113.056 6.26371 112.602 6.82625 112.361 7.52225C111.871 8.93725 111.637 10.4309 111.57 10.8689C111.557 10.9359 111.552 10.978 111.549 10.992H116.468C116.88 10.991 117.012 11.1831 116.971 11.4881L116.395 14.6883ZM138.854 27.8816C138.405 29.3946 137.711 30.7198 136.786 31.8318C135.858 32.9438 134.678 33.8346 133.292 34.4676C131.906 35.0996 130.268 35.4207 128.424 35.4207C126.581 35.4207 124.941 35.0996 123.546 34.4676C122.16 33.8336 120.98 32.9448 120.053 31.8318C119.126 30.7188 118.431 29.3936 117.986 27.8816C117.543 26.3786 117.317 24.7389 117.317 22.9929C117.317 21.2459 117.543 19.6073 117.986 18.1053C118.434 16.5933 119.13 15.2651 120.053 14.1531C120.98 13.0411 122.16 12.1488 123.546 11.5008C124.941 10.8528 126.57 10.5242 128.424 10.5242C130.278 10.5242 131.917 10.8508 133.302 11.5008C134.697 12.1448 135.867 13.0411 136.795 14.1531C137.723 15.2651 138.416 16.5933 138.863 18.1053H138.854C139.295 19.6073 139.521 21.2559 139.521 22.9929C139.521 24.7389 139.295 26.3786 138.854 27.8816ZM157.717 11.7342L157.726 11.6707C157.58 12.0897 156.829 14.1972 156.564 14.9002C156.464 15.1672 156.3 15.3482 156.003 15.3162C156.003 15.3162 155.12 15.1072 154.315 15.1072C153.617 15.1072 152.919 15.2062 152.248 15.4002C151.531 15.6222 150.879 16.0128 150.346 16.5418C149.784 17.0878 149.332 17.8494 148.999 18.8054C148.659 19.7694 148.49 21.3025 148.49 22.8445V34.3582C148.49 34.4812 148.441 34.5993 148.354 34.6863C148.266 34.7753 148.148 34.825 148.023 34.825H143.984C143.861 34.825 143.742 34.7753 143.655 34.6863C143.566 34.5993 143.517 34.4812 143.517 34.3582V11.4285C143.517 11.1715 143.703 10.9627 143.957 10.9627H147.899C148.159 10.9627 148.341 11.1715 148.341 11.4285L148.344 13.3025C148.927 12.5015 149.984 11.8096 150.937 11.3806C151.904 10.9456 152.977 10.621 154.91 10.741C155.914 10.804 157.223 11.0805 157.484 11.1785C157.536 11.1995 157.583 11.2303 157.624 11.2693C157.643 11.2873 157.661 11.3069 157.674 11.3289C157.683 11.3429 157.692 11.3549 157.699 11.3689C157.706 11.3819 157.711 11.394 157.718 11.408C157.741 11.46 157.749 11.5161 157.749 11.5711C157.749 11.6281 157.738 11.6832 157.717 11.7342ZM177.161 34.2176C175.444 34.8966 173.054 35.3689 170.722 35.3689C166.781 35.3689 163.757 34.2369 161.746 31.9929C159.735 29.7589 158.722 26.7063 158.722 22.9383C158.722 21.1923 158.97 19.5428 159.463 18.0418C159.961 16.5278 160.702 15.2007 161.677 14.0887C162.653 12.9767 163.881 12.0813 165.336 11.4363C166.79 10.7883 168.487 10.4607 170.399 10.4607C171.687 10.4607 172.829 10.5392 173.814 10.6902C174.867 10.8492 176.259 11.2268 176.849 11.4578C176.956 11.4988 177.252 11.645 177.133 11.992C176.845 12.804 176.618 13.4278 176.378 14.0818C176.262 14.4028 176.142 14.7305 176.01 15.0945C175.839 15.5635 175.484 15.409 175.484 15.409C173.98 14.937 172.546 14.7205 170.672 14.7205C168.43 14.7205 166.733 15.4831 165.628 16.9471C164.512 18.4281 163.888 20.3603 163.883 22.9363C163.872 25.7653 164.575 27.8532 165.834 29.1512C167.082 30.4492 168.839 31.1013 171.034 31.1013C171.923 31.1013 172.764 31.0416 173.52 30.9226C174.272 30.8066 174.979 30.5731 175.638 30.3201C175.638 30.3201 176.07 30.1526 176.219 30.5926H176.222L177.344 33.6765C177.488 34.0595 177.161 34.2176 177.161 34.2176ZM199.98 23.7937C199.976 23.8247 199.975 23.8452 199.974 23.8562C199.931 24.2512 199.525 24.2537 199.525 24.2537L184.111 24.242C184.199 26.585 184.764 28.233 185.896 29.366C187.006 30.47 188.774 31.1754 191.164 31.1804C194.501 31.1884 196.093 30.5741 197.182 30.1541C197.288 30.1141 197.39 30.0748 197.487 30.0388C197.487 30.0388 197.913 29.8874 198.067 30.3074L199.073 33.1258C199.272 33.6008 199.112 33.7671 198.94 33.8621C197.985 34.3991 195.643 35.3891 191.195 35.4031C189.038 35.4101 187.156 35.0988 185.605 34.4988C184.044 33.8948 182.745 33.0344 181.73 31.9334C180.716 30.8394 179.962 29.5253 179.496 28.0213C179.034 26.5283 178.799 24.8813 178.799 23.1053C178.799 21.3683 179.025 19.7091 179.475 18.1971C179.923 16.6661 180.627 15.3291 181.564 14.1961C182.5 13.0651 183.69 12.1609 185.103 11.4939C186.52 10.8329 188.265 10.5086 190.188 10.5086C191.702 10.5066 193.204 10.8101 194.598 11.4041C195.563 11.8141 196.53 12.5657 197.524 13.6287C198.149 14.3037 199.107 15.7763 199.495 17.2303L199.516 17.2342C200.441 20.4832 200.047 23.3247 199.98 23.7937ZM66.6011 14.5838C64.5811 14.5838 63.1452 15.3742 62.2002 16.8162C61.5712 17.7622 61.1692 18.9831 60.9512 20.4451L71.9283 20.4461C71.8243 19.0321 71.5461 17.7682 70.9131 16.8162C69.9561 15.3782 68.6191 14.5838 66.6011 14.5838ZM128.433 14.701C126.404 14.701 124.968 15.3917 124.024 16.8367C123.072 18.2917 122.588 20.3589 122.588 22.9929C122.588 25.6269 123.07 27.7155 124.024 29.1795C124.97 30.6285 126.415 31.3357 128.433 31.3357C130.453 31.3357 131.904 30.6237 132.863 29.1687C133.825 27.6957 134.315 25.6211 134.316 22.9871C134.315 20.3551 133.83 18.2887 132.863 16.8367C131.905 15.3997 130.461 14.701 128.433 14.701ZM36.3521 23.8513C34.9701 23.6383 33.5758 23.5199 32.1758 23.4969C29.0338 23.4579 27.6981 24.6092 27.7071 24.6082C26.7801 25.2612 26.3311 26.2368 26.3311 27.5828C26.3311 28.4408 26.488 29.1127 26.793 29.5847C26.992 29.8967 27.0772 30.0158 27.6812 30.4978L27.691 30.5027C27.68 30.4987 29.0663 31.5892 32.1993 31.4002C34.4033 31.2672 36.354 30.8465 36.354 30.8465H36.3521V23.8513V23.8513ZM60.9502 20.4461L60.9019 20.4451L60.9502 20.4461ZM189.824 14.5838C187.805 14.5838 186.367 15.3742 185.424 16.8162C184.796 17.7622 184.394 18.9831 184.176 20.4451L195.152 20.4461C195.048 19.0321 194.771 17.7682 194.137 16.8162C193.181 15.3782 191.845 14.5838 189.824 14.5838ZM184.176 20.4461L184.127 20.4451L184.176 20.4461Z" fill="white"/>
</svg>
