<svg xmlns="http://www.w3.org/2000/svg" viewBox="0 0 300 300" fill="#ff5722">
  <path d="M176 24c-13 1-26 4-38 12L80 73a67 67 0 0 0-30 45 71 71 0 0 0 7 45 67 67 0 0 0-11 25 72 72 0 0 0 13 54c23 34 69 44 103 22l58-37a67 67 0 0 0 30-45 71 71 0 0 0-7-45 68 68 0 0 0 11-25 72 72 0 0 0-13-54 78 78 0 0 0-65-34zm5 29a47 47 0 0 1 36 20 43 43 0 0 1 8 33 45 45 0 0 1-2 5l-1 3-3-2a76 76 0 0 0-23-11l-2-1v-2a13 13 0 0 0-2-9 14 14 0 0 0-15-5 13 13 0 0 0-4 1l-58 37a12 12 0 0 0-6 9 13 13 0 0 0 2 9 14 14 0 0 0 15 6 13 13 0 0 0 4-2l22-14a42 42 0 0 1 12-5 46 46 0 0 1 50 18 43 43 0 0 1 7 33 40 40 0 0 1-18 27l-58 37a43 43 0 0 1-12 6 47 47 0 0 1-50-19 43 43 0 0 1-8-32 38 38 0 0 1 2-6l1-3 3 2a76 76 0 0 0 23 11l2 1v2a13 13 0 0 0 2 9 14 14 0 0 0 15 6 13 13 0 0 0 4-2l58-37a12 12 0 0 0 6-9 13 13 0 0 0-2-9 14 14 0 0 0-15-6 13 13 0 0 0-4 2l-22 14a43 43 0 0 1-12 5 47 47 0 0 1-50-18 43 43 0 0 1-7-33 40 40 0 0 1 18-27l58-37a43 43 0 0 1 12-6 47 47 0 0 1 14-1z" />
</svg>
