<svg width="200" height="84" viewBox="0 0 200 84" fill="none" xmlns="http://www.w3.org/2000/svg">
<g clip-path="url(#clip0_132_9)">
<path fill-rule="evenodd" clip-rule="evenodd" d="M200 43C200 28.7778 193.111 17.5556 179.944 17.5556C166.722 17.5556 158.722 28.7778 158.722 42.8889C158.722 59.6111 168.167 68.0556 181.722 68.0556C188.333 68.0556 193.333 66.5556 197.111 64.4444V53.3333C193.333 55.2222 189 56.3889 183.5 56.3889C178.111 56.3889 173.333 54.5 172.722 47.9444H199.889C199.889 47.2222 200 44.3333 200 43ZM172.556 37.7222C172.556 31.4444 176.389 28.8333 179.889 28.8333C183.278 28.8333 186.889 31.4444 186.889 37.7222H172.556Z" fill="white"/>
<path fill-rule="evenodd" clip-rule="evenodd" d="M137.278 17.5556C131.833 17.5556 128.333 20.1111 126.389 21.8889L125.667 18.4444H113.444V83.2222L127.333 80.2778L127.389 64.5556C129.389 66 132.333 68.0556 137.222 68.0556C147.167 68.0556 156.222 60.0556 156.222 42.4444C156.167 26.3333 147 17.5556 137.278 17.5556ZM133.944 55.8333C130.667 55.8333 128.722 54.6667 127.389 53.2222L127.333 32.6111C128.778 31 130.778 29.8889 133.944 29.8889C139 29.8889 142.5 35.5556 142.5 42.8333C142.5 50.2778 139.056 55.8333 133.944 55.8333Z" fill="white"/>
<path fill-rule="evenodd" clip-rule="evenodd" d="M94.3333 14.2778L108.278 11.2778V0L94.3333 2.94444V14.2778Z" fill="white"/>
<path d="M108.278 18.5H94.3333V67.1111H108.278V18.5Z" fill="white"/>
<path fill-rule="evenodd" clip-rule="evenodd" d="M79.3889 22.6111L78.5 18.5H66.5V67.1111H80.3889V34.1667C83.6667 29.8889 89.2222 30.6667 90.9444 31.2778V18.5C89.1667 17.8333 82.6667 16.6111 79.3889 22.6111Z" fill="white"/>
<path fill-rule="evenodd" clip-rule="evenodd" d="M51.6111 6.44444L38.0556 9.33333L38 53.8333C38 62.0556 44.1667 68.1111 52.3889 68.1111C56.9444 68.1111 60.2778 67.2778 62.1111 66.2778V55C60.3333 55.7222 51.5556 58.2778 51.5556 50.0556V30.3333H62.1111V18.5H51.5556L51.6111 6.44444Z" fill="white"/>
<path fill-rule="evenodd" clip-rule="evenodd" d="M14.0556 32.6111C14.0556 30.4444 15.8333 29.6111 18.7778 29.6111C23 29.6111 28.3333 30.8889 32.5556 33.1667V20.1111C27.9444 18.2778 23.3889 17.5556 18.7778 17.5556C7.5 17.5556 0 23.4444 0 33.2778C0 48.6111 21.1111 46.1667 21.1111 52.7778C21.1111 55.3333 18.8889 56.1667 15.7778 56.1667C11.1667 56.1667 5.27778 54.2778 0.61111 51.7222V64.9444C5.77778 67.1667 11 68.1111 15.7778 68.1111C27.3333 68.1111 35.2778 62.3889 35.2778 52.4444C35.2222 35.8889 14.0556 38.8333 14.0556 32.6111Z" fill="white"/>
</g>
<defs>
<clipPath id="clip0_132_9">
<rect width="200" height="83.2222" fill="white"/>
</clipPath>
</defs>
</svg>
